<?xml version="1.0" encoding="UTF-8"?>
<!DOCTYPE svg PUBLIC "-//W3C//DTD SVG 1.1//EN" "http://www.w3.org/Graphics/SVG/1.1/DTD/svg11.dtd">
<svg version="1.1" xmlns="http://www.w3.org/2000/svg" xmlns:xlink="http://www.w3.org/1999/xlink" x="0" y="0" width="792" height="612" viewBox="0, 0, 792, 612">
  <g id="Background">
    <rect x="0" y="0" width="792" height="612" fill="#FFFFFF"/>
  </g>
  <g id="Layer_2">
    <path d="M246.859,326.111 L246.863,326.11 L246.895,326.108 L247.002,326.098 L247.256,326.067 L247.635,326.022 L248.137,325.963 L248.759,325.882 L249.498,325.783 L250.355,325.668 L251.325,325.539 L252.408,325.395 L253.601,325.233 L254.901,325.053 L256.308,324.859 L257.818,324.651 L259.431,324.431 L261.144,324.198 L262.955,323.953 L264.861,323.691 L266.861,323.417 L268.953,323.131 L271.134,322.835 L273.404,322.528 L275.759,322.212 L278.197,321.883 L280.717,321.545 L283.317,321.198 L285.994,320.843 L288.746,320.479 L291.572,320.106 L294.47,319.727 L297.437,319.341 L300.471,318.949 L303.57,318.55 L306.733,318.145 L309.957,317.736 L313.24,317.323 L316.58,316.906 L319.976,316.483 L323.424,316.058 L326.924,315.63 L330.472,315.2 L334.068,314.769 L337.708,314.337 L341.391,313.902 L345.115,313.467 L348.878,313.032 L354.594,312.381 L362.331,311.519 L370.183,310.663 L378.137,309.82 L386.178,308.995 L394.287,308.187 L402.449,307.403 L410.647,306.647 L418.865,305.922 L427.087,305.231 L435.291,304.548 L443.445,303.705 L451.555,302.918 L459.606,302.195 L467.579,301.528 L473.489,301.067 L477.393,300.779 L481.276,300.507 L485.129,300.251 L488.949,300.018 L492.734,299.804 L496.481,299.607 L500.189,299.429 L503.855,299.27 L507.477,299.131 L511.053,299.012 L514.581,298.913 L518.058,298.835 L521.483,298.779 L524.852,298.744 L528.164,298.732 L531.417,298.742 L534.607,298.776 L537.733,298.835 L540.792,298.919 L543.781,299.027 L546.698,299.16 L549.541,299.317 L552.306,299.5 L554.991,299.708 L557.593,299.941 L560.109,300.2 L562.535,300.485 L564.87,300.794 L567.108,301.129 L569.246,301.489 L571.282,301.872 L573.209,302.278 L575.025,302.706 L576.724,303.153 L578.302,303.617 L579.753,304.096 L581.071,304.583 L582.251,305.076 L583.288,305.565 L584.175,306.042 L584.909,306.497 L585.486,306.916 L585.907,307.283 L586.037,307.439 L586.045,307.474 L586.109,307.564 L586.143,307.629 L586.15,307.667 L586.135,307.678 L586.102,307.662 L586.055,307.621 L585.999,307.557 L585.939,307.473 L585.879,307.373 L585.822,307.264 L585.772,307.151 L585.729,307.041 L585.694,306.941 L585.666,306.858 L585.651,306.662 L585.65,306.462 L585.636,307.825 L585.583,310.461 L585.495,313.091 L585.373,315.751 L585.216,318.439 L585.025,321.155 L584.799,323.897 L584.537,326.662 L584.239,329.45 L583.906,332.259 L583.536,335.087 L583.13,337.933 L582.687,340.796 L582.206,343.673 L581.689,346.564 L581.134,349.466 L580.542,352.38 L579.911,355.302 L579.242,358.231 L578.535,361.166 L577.789,364.106 L577.004,367.049 L576.18,369.993 L575.316,372.937 L574.413,375.88 L573.471,378.82 L572.489,381.756 L571.467,384.686 L570.405,387.609 L569.303,390.523 L568.16,393.427 L566.977,396.32 L566.386,397.722 L566.435,397.607 L565.708,399.29 L564.268,402.445 L562.751,405.547 L561.127,408.667 L559.392,411.804 L557.545,414.954 L555.587,418.115 L553.514,421.284 L551.326,424.457 L549.021,427.632 L546.599,430.807 L544.057,433.977 L541.395,437.142 L538.611,440.297 L535.704,443.441 L533.469,445.762 L531.948,447.296 L530.371,448.852 L528.761,450.404 L527.12,451.951 L525.447,453.492 L523.742,455.027 L522.004,456.556 L520.234,458.079 L518.432,459.595 L516.596,461.103 L514.728,462.604 L512.826,464.097 L510.891,465.582 L508.923,467.058 L506.921,468.525 L504.885,469.983 L502.815,471.432 L500.711,472.87 L498.573,474.298 L496.4,475.716 L494.193,477.122 L491.95,478.518 L489.673,479.901 L487.36,481.273 L485.013,482.632 L482.629,483.978 L480.21,485.311 L477.755,486.631 L475.264,487.937 L472.737,489.229 L470.174,490.507 L467.573,491.769 L464.937,493.017 L463.636,493.62 L463.729,493.576 L462.325,494.216 L459.676,495.372 L457.054,496.455 L454.398,497.494 L451.71,498.488 L448.991,499.437 L446.242,500.342 L443.464,501.202 L440.659,502.016 L437.828,502.786 L434.973,503.512 L432.094,504.192 L429.194,504.827 L426.273,505.418 L423.333,505.964 L420.376,506.465 L417.402,506.921 L414.413,507.333 L411.41,507.7 L408.396,508.022 L405.37,508.3 L402.336,508.534 L399.293,508.724 L396.245,508.87 L393.191,508.971 L390.133,509.029 L387.073,509.043 L384.013,509.014 L380.953,508.941 L377.895,508.825 L374.841,508.666 L371.792,508.464 L368.749,508.22 L365.714,507.933 L362.689,507.604 L359.674,507.233 L356.671,506.82 L353.682,506.366 L350.708,505.87 L347.75,505.334 L344.81,504.756 L341.89,504.138 L338.99,503.48 L336.113,502.783 L333.259,502.045 L330.431,501.269 L327.628,500.453 L324.854,499.6 L322.11,498.707 L319.396,497.778 L316.714,496.81 L314.066,495.806 L311.453,494.766 L308.877,493.689 L306.338,492.577 L303.839,491.43 L301.38,490.249 L298.962,489.034 L296.589,487.785 L294.259,486.503 L291.976,485.189 L289.74,483.842 L287.552,482.465 L285.415,481.056 L284.431,480.385 L284.544,480.461 L282.039,478.728 L278.453,476.194 L276.141,474.525 L273.834,472.83 L271.557,471.128 L269.31,469.417 L267.094,467.697 L264.907,465.969 L262.75,464.231 L260.623,462.484 L258.527,460.726 L256.46,458.958 L254.423,457.179 L252.416,455.389 L250.44,453.587 L248.493,451.774 L246.576,449.948 L244.688,448.109 L242.831,446.257 L241.003,444.391 L239.205,442.512 L237.436,440.618 L235.697,438.71 L233.987,436.786 L232.306,434.846 L230.655,432.89 L229.033,430.918 L227.439,428.928 L225.875,426.921 L224.339,424.896 L222.832,422.852 L221.353,420.789 L219.902,418.707 L218.479,416.605 L217.084,414.482 L215.718,412.337 L214.379,410.171 L213.069,407.982 L211.786,405.77 L210.532,403.535 L209.305,401.275 L208.106,398.99 L206.934,396.679 L205.791,394.343 L204.675,391.979 L203.586,389.588 L202.526,387.169 L201.493,384.722 L200.487,382.245 L199.51,379.738 L198.56,377.201 L197.638,374.632 L196.744,372.032 L195.878,369.399 L195.039,366.733 L194.229,364.034 L193.448,361.3 L192.694,358.532 L191.968,355.729 L191.269,352.89 L190.599,350.014 L189.958,347.101 L189.345,344.151 L189.06,342.709 L189.086,342.836 L188.841,341.554 L188.431,339.203 L188.076,336.897 L187.76,334.557 L187.483,332.185 L187.245,329.781 L187.045,327.347 L186.884,324.885 L186.762,322.395 L186.679,319.88 L186.634,317.34 L186.627,314.778 L186.659,312.194 L186.728,309.59 L186.834,306.968 L186.979,304.328 L187.16,301.673 L187.378,299.003 L187.632,296.32 L187.921,293.626 L188.244,290.921 L188.603,288.208 L188.997,285.487 L189.425,282.759 L190.141,278.611 L191.212,273.091 L192.085,269.034 L192.704,266.347 L193.364,263.617 L194.056,260.891 L194.779,258.171 L195.532,255.459 L196.315,252.756 L197.127,250.064 L197.969,247.383 L198.839,244.715 L199.737,242.061 L200.66,239.423 L201.607,236.801 L202.581,234.197 L203.581,231.612 L204.607,229.049 L205.657,226.508 L206.731,223.991 L207.829,221.498 L208.95,219.033 L210.094,216.595 L211.259,214.186 L212.446,211.807 L213.653,209.461 L214.88,207.147 L216.126,204.869 L217.391,202.625 L218.674,200.42 L219.971,198.251 L221.279,196.118 L222.603,194.027 L223.942,191.978 L225.296,189.973 L226.662,188.013 L228.04,186.1 L229.431,184.234 L230.087,183.375 L229.991,183.499 L230.783,182.48 L232.256,180.646 L233.737,178.876 L235.279,177.1 L236.881,175.323 L238.542,173.544 L240.258,171.762 L242.023,169.975 L243.845,168.191 L245.721,166.412 L247.651,164.639 L249.628,162.868 L251.654,161.103 L253.73,159.347 L255.855,157.602 L258.028,155.87 L260.247,154.151 L262.511,152.447 L264.819,150.759 L267.17,149.087 L269.562,147.434 L271.994,145.801 L274.465,144.188 L276.974,142.596 L279.519,141.027 L282.097,139.476 L284.708,137.95 L287.353,136.45 L290.029,134.977 L292.735,133.531 L295.471,132.114 L298.234,130.727 L301.024,129.371 L303.84,128.047 L306.68,126.756 L309.542,125.498 L312.427,124.275 L315.332,123.088 L318.256,121.937 L321.198,120.824 L324.157,119.749 L327.131,118.713 L330.12,117.718 L333.122,116.763 L336.135,115.851 L339.159,114.982 L342.193,114.156 L345.232,113.368 L348.279,112.623 L351.331,111.924 L354.387,111.272 L357.448,110.668 L360.51,110.113 L363.574,109.607 L366.637,109.151 L369.699,108.745 L372.758,108.392 L375.813,108.091 L378.864,107.842 L381.908,107.648 L384.945,107.508 L387.974,107.424 L390.994,107.395 L394.002,107.422 L395.431,107.455 L395.431,107.455 C395.621,107.462 395.81,107.466 396,107.466 L396,107.466 L396,107.466 L396,107.466 L396,107.466 L396,107.466 L396,107.466 L396,107.466 L396,107.466 L396,107.466 L396,107.466 L396,107.466 L396,107.466 L395.555,107.459 L397.367,107.488 L400.78,107.579 L404.089,107.714 L407.354,107.895 L410.575,108.125 L413.752,108.402 L416.886,108.725 L419.978,109.094 L423.028,109.506 L426.036,109.96 L429.003,110.456 L431.93,110.993 L434.816,111.568 L437.663,112.182 L440.47,112.833 L443.239,113.519 L445.97,114.241 L448.663,114.996 L451.318,115.782 L453.939,116.594 L456.524,117.436 L459.073,118.308 L461.586,119.208 L464.064,120.136 L466.507,121.09 L468.916,122.069 L471.29,123.072 L473.631,124.098 L475.939,125.147 L478.213,126.216 L480.455,127.305 L482.664,128.413 L484.841,129.539 L486.986,130.682 L489.102,131.836 L491.188,133.003 L493.243,134.183 L495.267,135.376 L497.261,136.58 L499.226,137.794 L501.16,139.018 L503.065,140.25 L505.892,142.127 L509.549,144.641 L513.067,147.15 L516.481,149.655 L519.786,152.154 L522.18,154.007 L523.74,155.233 L525.29,156.466 L526.815,157.69 L528.316,158.904 L529.792,160.109 L531.244,161.303 L532.672,162.486 L534.077,163.654 L535.459,164.809 L536.819,165.949 L538.158,167.071 L538.818,167.625 L538.818,167.625 C543.581,171.868 550.882,171.445 555.125,166.682 C559.367,161.919 558.945,154.618 554.182,150.375 L553.546,149.775 L552.254,148.556 L550.929,147.313 L549.572,146.046 L548.183,144.755 L546.761,143.445 L545.307,142.114 L543.82,140.764 L542.301,139.397 L540.747,138.015 L539.159,136.619 L537.522,135.197 L535.008,133.047 L531.555,130.161 L527.96,127.247 L524.216,124.321 L520.35,121.406 L517.362,119.226 L515.307,117.764 L513.213,116.306 L511.08,114.854 L508.908,113.409 L506.697,111.971 L504.446,110.543 L502.155,109.126 L499.823,107.723 L497.447,106.338 L495.03,104.968 L492.572,103.614 L490.072,102.278 L487.53,100.961 L484.946,99.665 L482.319,98.391 L479.648,97.14 L476.935,95.914 L474.178,94.714 L471.377,93.541 L468.532,92.397 L465.642,91.284 L462.708,90.202 L459.729,89.153 L456.703,88.145 L453.631,87.174 L450.514,86.24 L447.351,85.345 L444.143,84.49 L440.889,83.676 L437.588,82.904 L434.242,82.177 L430.849,81.495 L427.409,80.859 L423.923,80.272 L420.389,79.733 L416.809,79.245 L413.181,78.809 L409.506,78.425 L405.784,78.096 L402.014,77.826 L398.254,77.62 L396.445,77.541 L396.445,77.541 C396.296,77.536 396.148,77.534 396,77.534 L396,77.534 L396,77.534 L396,77.534 L396,77.534 L396,77.534 L396,77.534 L396,77.534 L396,77.534 L396,77.534 L396,77.534 L396,77.534 L396,77.534 L396.569,77.545 L394.714,77.453 L391.144,77.324 L387.57,77.262 L383.994,77.266 L380.416,77.334 L376.838,77.466 L373.261,77.66 L369.685,77.915 L366.112,78.23 L362.544,78.604 L358.98,79.036 L355.422,79.525 L351.87,80.069 L348.327,80.669 L344.793,81.322 L341.269,82.028 L337.756,82.786 L334.255,83.597 L330.769,84.465 L327.298,85.381 L323.841,86.346 L320.401,87.357 L316.978,88.414 L313.573,89.516 L310.187,90.663 L306.821,91.852 L303.476,93.085 L300.153,94.358 L296.853,95.672 L293.577,97.026 L290.326,98.419 L287.101,99.85 L283.903,101.318 L280.733,102.823 L277.592,104.363 L274.481,105.938 L271.4,107.546 L268.352,109.188 L265.336,110.863 L262.353,112.569 L259.409,114.31 L256.501,116.083 L253.63,117.884 L250.796,119.715 L248.002,121.573 L245.247,123.459 L242.533,125.371 L239.86,127.31 L237.231,129.273 L234.645,131.262 L232.104,133.274 L229.608,135.31 L227.16,137.37 L224.761,139.455 L222.416,141.567 L220.121,143.7 L217.877,145.855 L215.685,148.03 L213.553,150.232 L211.479,152.457 L209.46,154.702 L207.498,156.966 L205.594,159.249 L203.802,161.482 L203.009,162.501 L203.009,162.501 C202.977,162.542 202.945,162.584 202.913,162.625 L202.913,162.625 L202.004,163.817 L200.29,166.12 L198.603,168.464 L196.943,170.848 L195.309,173.271 L193.702,175.732 L192.121,178.23 L190.567,180.763 L189.045,183.335 L187.553,185.941 L186.088,188.58 L184.651,191.25 L183.241,193.951 L181.859,196.681 L180.505,199.439 L179.18,202.225 L177.883,205.036 L176.615,207.874 L175.376,210.735 L174.167,213.62 L172.987,216.526 L171.838,219.454 L170.719,222.402 L169.631,225.369 L168.574,228.354 L167.55,231.357 L166.562,234.376 L165.605,237.41 L164.682,240.458 L163.791,243.519 L162.934,246.592 L162.11,249.675 L161.321,252.768 L160.567,255.869 L159.848,258.978 L159.154,262.141 L158.188,266.873 L157.05,273.085 L156.296,277.735 L155.836,280.869 L155.415,284.003 L155.033,287.135 L154.691,290.264 L154.391,293.391 L154.133,296.513 L153.918,299.629 L153.745,302.739 L153.614,305.842 L153.527,308.936 L153.484,312.021 L153.486,315.096 L153.534,318.16 L153.627,321.211 L153.767,324.249 L153.955,327.273 L154.191,330.282 L154.477,333.275 L154.812,336.251 L155.198,339.209 L155.636,342.148 L156.127,345.066 L156.655,347.884 L156.914,349.164 L156.914,349.164 C156.923,349.206 156.931,349.249 156.94,349.291 L156.94,349.291 L157.303,351.016 L158.037,354.345 L158.804,357.64 L159.606,360.9 L160.442,364.127 L161.313,367.321 L162.22,370.48 L163.161,373.607 L164.136,376.701 L165.145,379.763 L166.188,382.793 L167.266,385.79 L168.377,388.756 L169.522,391.691 L170.701,394.595 L171.914,397.468 L173.161,400.31 L174.441,403.121 L175.754,405.903 L177.1,408.654 L178.48,411.376 L179.893,414.068 L181.338,416.731 L182.816,419.365 L184.326,421.971 L185.869,424.547 L187.444,427.096 L189.05,429.617 L190.688,432.109 L192.358,434.575 L194.058,437.013 L195.79,439.424 L197.553,441.809 L199.347,444.166 L201.171,446.498 L203.025,448.805 L204.909,451.086 L206.822,453.343 L208.765,455.575 L210.736,457.783 L212.737,459.967 L214.765,462.129 L216.822,464.267 L218.908,466.383 L221.021,468.477 L223.162,470.55 L225.33,472.601 L227.526,474.632 L229.749,476.643 L231.998,478.634 L234.275,480.607 L236.578,482.56 L238.907,484.495 L241.263,486.413 L243.645,488.313 L246.052,490.196 L248.486,492.064 L250.945,493.915 L253.43,495.752 L255.941,497.573 L258.476,499.381 L261.062,501.192 L264.926,503.841 L267.456,505.539 L267.456,505.539 C267.493,505.564 267.531,505.59 267.569,505.615 L267.569,505.615 L268.96,506.53 L271.642,508.235 L274.367,509.891 L277.136,511.498 L279.945,513.056 L282.793,514.565 L285.68,516.027 L288.604,517.44 L291.563,518.804 L294.557,520.122 L297.584,521.39 L300.644,522.611 L303.734,523.784 L306.853,524.91 L310.001,525.988 L313.176,527.02 L316.376,528.003 L319.601,528.94 L322.85,529.83 L326.121,530.672 L329.413,531.467 L332.724,532.215 L336.055,532.916 L339.403,533.569 L342.767,534.175 L346.146,534.733 L349.539,535.244 L352.945,535.707 L356.363,536.122 L359.79,536.49 L363.228,536.809 L366.673,537.08 L370.125,537.303 L373.582,537.477 L377.044,537.603 L380.509,537.68 L383.976,537.708 L387.444,537.687 L390.912,537.617 L394.378,537.497 L397.842,537.327 L401.302,537.107 L404.756,536.837 L408.204,536.517 L411.645,536.146 L415.077,535.724 L418.498,535.25 L421.909,534.725 L425.307,534.149 L428.692,533.52 L432.062,532.839 L435.415,532.105 L438.752,531.318 L442.069,530.477 L445.367,529.583 L448.644,528.635 L451.898,527.632 L455.129,526.575 L458.334,525.462 L461.513,524.293 L464.665,523.069 L467.787,521.788 L470.879,520.45 L473.877,519.084 L475.271,518.424 L475.271,518.424 C475.302,518.409 475.333,518.395 475.364,518.38 L475.364,518.38 L476.843,517.667 L479.71,516.255 L482.54,514.827 L485.332,513.381 L488.087,511.918 L490.805,510.439 L493.487,508.944 L496.131,507.432 L498.739,505.905 L501.31,504.363 L503.845,502.806 L506.344,501.235 L508.806,499.649 L511.232,498.05 L513.622,496.437 L515.977,494.81 L518.296,493.172 L520.579,491.52 L522.827,489.857 L525.039,488.182 L527.216,486.495 L529.358,484.798 L531.465,483.09 L533.537,481.371 L535.574,479.643 L537.577,477.904 L539.545,476.157 L541.479,474.401 L543.378,472.636 L545.244,470.862 L547.075,469.081 L548.873,467.293 L550.636,465.497 L552.392,463.667 L554.949,460.922 L558.208,457.279 L561.334,453.615 L564.328,449.932 L567.193,446.234 L569.928,442.523 L572.535,438.803 L575.015,435.076 L577.368,431.344 L579.596,427.61 L581.701,423.878 L583.681,420.149 L585.54,416.426 L587.278,412.713 L588.864,409.086 L589.565,407.393 L589.565,407.393 C589.582,407.355 589.598,407.316 589.613,407.278 L589.613,407.278 L590.277,405.63 L591.538,402.407 L592.752,399.176 L593.92,395.939 L595.042,392.696 L596.119,389.45 L597.15,386.201 L598.138,382.951 L599.081,379.7 L599.98,376.451 L600.835,373.205 L601.648,369.962 L602.418,366.725 L603.146,363.494 L603.832,360.271 L604.476,357.057 L605.079,353.853 L605.64,350.66 L606.161,347.48 L606.641,344.315 L607.082,341.164 L607.482,338.03 L607.843,334.914 L608.164,331.816 L608.447,328.739 L608.691,325.683 L608.896,322.65 L609.063,319.64 L609.192,316.656 L609.284,313.697 L609.338,310.766 L609.355,307.902 L609.35,306.538 L609.35,306.538 C609.35,306.472 609.349,306.405 609.348,306.338 L609.348,306.338 L609.326,305.553 L609.234,304.307 L609.071,303.066 L608.838,301.836 L608.534,300.623 L608.162,299.435 L607.724,298.277 L607.226,297.155 L606.671,296.072 L606.066,295.034 L605.414,294.04 L604.721,293.094 L603.993,292.194 L603.232,291.34 L602.444,290.53 L601.544,289.687 L600.204,288.559 L598.472,287.281 L596.676,286.13 L594.821,285.09 L592.909,284.145 L590.938,283.284 L588.909,282.496 L586.818,281.774 L584.665,281.112 L582.447,280.503 L580.164,279.944 L577.815,279.431 L575.398,278.962 L572.914,278.533 L570.363,278.143 L567.744,277.79 L565.058,277.473 L562.306,277.189 L559.488,276.939 L556.605,276.721 L553.659,276.533 L550.649,276.376 L547.579,276.248 L544.448,276.148 L541.259,276.076 L538.013,276.03 L534.711,276.011 L531.354,276.015 L527.945,276.044 L524.485,276.097 L520.976,276.174 L517.42,276.274 L513.818,276.396 L510.171,276.54 L506.483,276.706 L502.754,276.893 L498.986,277.1 L495.182,277.326 L491.343,277.572 L487.471,277.837 L483.568,278.118 L479.635,278.411 L475.675,278.722 L471.68,279.049 L465.649,279.57 L457.55,280.315 L449.383,281.116 L441.163,281.956 L432.906,282.835 L424.651,283.96 L416.397,285.155 L408.156,286.387 L399.944,287.648 L391.775,288.935 L383.667,290.243 L375.634,291.57 L367.692,292.908 L359.858,294.253 L352.149,295.603 L346.458,296.614 L342.709,297.286 L339,297.957 L335.332,298.625 L331.708,299.291 L328.129,299.954 L324.598,300.612 L321.116,301.265 L317.686,301.913 L314.31,302.555 L310.989,303.192 L307.725,303.822 L304.521,304.443 L301.379,305.056 L298.3,305.66 L295.286,306.256 L292.34,306.842 L289.463,307.417 L286.658,307.981 L283.925,308.533 L281.269,309.075 L278.69,309.603 L276.19,310.116 L273.771,310.616 L271.436,311.104 L269.186,311.576 L267.023,312.032 L264.95,312.47 L262.967,312.891 L261.078,313.294 L259.285,313.684 L257.589,314.054 L255.992,314.403 L254.496,314.731 L253.103,315.038 L251.815,315.322 L250.634,315.589 L249.563,315.835 L248.603,316.056 L247.756,316.251 L247.023,316.421 L246.408,316.567 L245.913,316.691 L245.538,316.785 L245.285,316.849 L245.177,316.878 L245.145,316.888 L245.141,316.889 C245.141,316.889 245.141,316.889 245.141,316.889 C242.595,317.364 240.915,319.812 241.389,322.359 C241.864,324.905 244.312,326.585 246.859,326.111 L246.859,326.111" fill="#000000"/>
    <path d="M304.623,453.132 L305.028,452.772 L305.527,451.92 L306.016,451.016 L306.427,450.055 L306.848,449.058 L307.279,448.025 L307.676,446.948 L308.058,445.831 L308.448,444.681 L308.845,443.496 L309.454,441.663 L310.208,439.088 L310.973,436.381 L311.759,433.554 L312.549,430.609 L313.3,427.542 L314.068,424.37 L314.852,421.096 L315.651,417.726 L316.418,414.257 L317.181,410.698 L317.956,407.058 L318.742,403.341 L319.537,399.551 L320.326,395.693 L321.099,391.768 L321.879,387.786 L322.656,383.751 L323.419,379.666 L324.183,375.538 L324.921,371.368 L326.034,365.056 L327.526,356.556 L328.984,347.99 L330.432,339.406 L331.875,330.845 L333.291,322.345 L334.343,316.036 L335.039,311.872 L335.731,307.746 L336.417,303.663 L337.098,299.63 L337.771,295.651 L338.438,291.731 L339.098,287.875 L339.749,284.089 L340.392,280.377 L341.026,276.746 L341.652,273.199 L342.271,269.744 L342.88,266.385 L343.477,263.127 L344.062,259.975 L344.633,256.935 L345.191,254.012 L345.734,251.213 L346.262,248.542 L346.774,246.007 L347.153,244.206 L347.4,243.055 L347.643,241.934 L347.881,240.852 L348.114,239.809 L348.342,238.806 L348.564,237.845 L348.781,236.927 L348.992,236.052 L349.197,235.223 L349.293,234.844 L349.286,234.872 L349.713,233.18 L350.55,229.904 L351.373,226.752 L352.189,223.715 L352.999,220.796 L353.818,217.998 L354.648,215.324 L355.48,212.773 L356.319,210.347 L357.165,208.047 L358.02,205.876 L358.885,203.836 L359.761,201.928 L360.647,200.151 L361.543,198.508 L362.455,197 L363.113,196.02 L363.534,195.432 L363.994,194.812 L364.456,194.223 L364.918,193.662 L365.382,193.131 L365.848,192.626 L366.316,192.148 L366.786,191.694 L367.257,191.262 L367.71,190.829 L368.171,190.416 L368.639,190.021 L369.117,189.642 L369.605,189.278 L370.106,188.928 L370.621,188.591 L371.152,188.265 L371.702,187.951 L372.273,187.647 L372.866,187.352 L373.483,187.067 L374.127,186.792 L374.799,186.526 L375.502,186.268 L376.236,186.02 L377.003,185.781 L377.806,185.554 L378.646,185.338 L379.523,185.134 L380.439,184.942 L381.395,184.764 L381.815,184.693 L381.625,184.724 L382.266,184.623 L383.166,184.508 L383.903,184.446 L384.595,184.414 L385.246,184.411 L385.856,184.432 L386.43,184.477 L386.971,184.542 L387.483,184.626 L387.968,184.728 L388.432,184.847 L388.879,184.982 L389.312,185.133 L389.736,185.302 L390.155,185.488 L390.571,185.693 L390.987,185.92 L391.406,186.168 L391.831,186.441 L392.262,186.741 L392.7,187.068 L393.148,187.423 L393.606,187.809 L394.072,188.226 L394.547,188.677 L395.03,189.162 L395.521,189.681 L396.019,190.236 L396.83,191.194 L397.897,192.563 L398.929,194.002 L399.976,195.571 L401.034,197.262 L402.1,199.068 L403.172,200.98 L404.251,202.99 L405.336,205.091 L406.428,207.272 L408.096,210.703 L410.363,215.441 L412.7,220.334 L415.148,225.348 L416.453,227.94 L416.453,227.94 C416.462,227.958 416.471,227.976 416.48,227.995 L416.48,227.995 L416.638,228.303 L416.948,228.916 L417.273,229.561 L417.617,230.249 L417.979,230.979 L418.359,231.75 L418.757,232.561 L419.171,233.41 L419.602,234.297 L420.049,235.221 L420.511,236.18 L420.989,237.175 L421.481,238.205 L421.988,239.268 L422.509,240.364 L423.045,241.492 L423.593,242.652 L424.155,243.843 L424.733,245.063 L425.325,246.312 L425.93,247.59 L426.548,248.896 L427.497,250.908 L428.802,253.684 L430.15,256.559 L431.539,259.531 L432.967,262.595 L434.432,265.746 L435.932,268.98 L437.464,272.29 L439.026,275.673 L440.622,279.121 L442.255,282.626 L443.912,286.189 L445.591,289.805 L447.289,293.47 L449.004,297.177 L450.734,300.923 L452.477,304.703 L455.113,310.426 L458.699,318.108 L462.296,325.837 L465.887,333.577 L469.463,341.284 L472.157,347.004 L473.935,350.788 L475.698,354.546 L477.442,358.271 L479.18,361.951 L480.91,365.582 L482.613,369.166 L484.292,372.697 L485.959,376.163 L487.616,379.558 L489.258,382.878 L490.879,386.12 L492.511,389.265 L494.098,392.332 L495.637,395.314 L497.145,398.201 L498.687,400.958 L499.803,402.962 L500.529,404.267 L501.239,405.547 L501.935,406.801 L502.677,408.003 L503.401,409.179 L504.106,410.327 L504.793,411.448 L505.46,412.541 L506.147,413.589 L506.854,414.593 L507.537,415.568 L508.198,416.514 L508.869,417.416 L509.588,418.261 L510.279,419.077 L511.03,419.83 L511.838,420.521 L512.403,420.788 L512.403,420.788 C512.839,421.946 514.13,422.532 515.288,422.097 C516.446,421.661 517.032,420.37 516.597,419.212 C516.597,419.212 516.597,419.212 516.597,419.212 L516.842,418.626 L516.983,417.557 L517.035,416.479 L516.994,415.393 L516.95,414.267 L516.827,413.13 L516.662,411.971 L516.49,410.775 L516.311,409.544 L516.084,408.294 L515.808,407.027 L515.523,405.728 L515.229,404.397 L514.927,403.034 L514.616,401.641 L514.234,400.244 L513.84,398.819 L513.436,397.365 L512.814,395.133 L511.954,392.067 L510.97,388.937 L509.931,385.722 L508.859,382.417 L507.754,379.028 L506.564,375.583 L505.326,372.072 L504.038,368.5 L502.701,364.875 L501.317,361.2 L499.907,357.473 L498.475,353.697 L497.007,349.884 L495.506,346.038 L493.989,342.159 L492.456,338.248 L490.134,332.34 L486.953,324.43 L483.738,316.497 L480.517,308.573 L477.304,300.699 L474.874,294.865 L473.264,291.01 L471.664,287.19 L470.078,283.407 L468.508,279.669 L466.954,275.978 L465.42,272.341 L463.908,268.761 L462.408,265.249 L460.927,261.807 L459.475,258.437 L458.052,255.144 L456.66,251.932 L455.303,248.806 L453.981,245.772 L452.697,242.833 L451.454,239.996 L450.549,237.938 L449.958,236.598 L449.379,235.286 L448.81,234.002 L448.251,232.748 L447.701,231.525 L447.163,230.331 L446.638,229.167 L446.125,228.034 L445.624,226.933 L445.137,225.863 L444.663,224.826 L444.202,223.821 L443.754,222.85 L443.32,221.912 L442.899,221.008 L442.493,220.138 L442.1,219.302 L441.721,218.501 L441.355,217.735 L441.004,217.003 L440.671,216.316 L440.52,216.005 L440.547,216.06 L439.44,213.759 L437.186,208.919 L434.929,203.957 L432.641,198.952 L430.877,195.214 L429.658,192.708 L428.402,190.211 L427.102,187.726 L425.75,185.261 L424.336,182.819 L422.851,180.407 L421.283,178.031 L419.62,175.698 L417.902,173.48 L416.56,171.878 L415.59,170.79 L414.587,169.722 L413.547,168.675 L412.47,167.651 L411.354,166.654 L410.198,165.685 L408.999,164.749 L407.758,163.85 L406.474,162.988 L405.148,162.168 L403.78,161.394 L402.371,160.668 L400.923,159.994 L399.437,159.376 L397.916,158.816 L396.361,158.318 L394.777,157.883 L393.166,157.513 L391.531,157.21 L389.875,156.975 L388.201,156.807 L386.511,156.706 L384.809,156.673 L383.095,156.707 L381.371,156.806 L379.639,156.97 L378.016,157.179 L377.375,157.276 L377.375,157.276 C377.312,157.286 377.248,157.296 377.185,157.307 L377.185,157.307 L376.324,157.452 L374.763,157.742 L373.221,158.063 L371.7,158.417 L370.199,158.805 L368.718,159.227 L367.258,159.684 L365.819,160.176 L364.401,160.705 L363.007,161.271 L361.635,161.874 L360.287,162.514 L358.965,163.189 L357.668,163.901 L356.398,164.649 L355.155,165.432 L353.942,166.249 L352.758,167.099 L351.605,167.982 L350.483,168.896 L349.393,169.84 L348.335,170.812 L347.31,171.812 L346.339,172.858 L345.404,173.929 L344.503,175.022 L343.634,176.136 L342.797,177.269 L341.992,178.42 L341.216,179.588 L340.471,180.773 L339.715,182.037 L338.661,183.922 L337.383,186.398 L336.187,188.928 L335.072,191.513 L334.028,194.154 L333.047,196.853 L332.121,199.61 L331.243,202.429 L330.406,205.311 L329.602,208.259 L328.827,211.275 L328.063,214.359 L327.306,217.513 L326.56,220.742 L325.819,224.048 L325.081,227.423 L324.714,229.128 L324.714,229.128 C324.711,229.138 324.709,229.147 324.707,229.156 L324.707,229.156 L324.603,229.643 L324.401,230.605 L324.198,231.6 L323.993,232.63 L323.785,233.693 L323.576,234.79 L323.365,235.921 L323.151,237.085 L322.935,238.282 L322.716,239.519 L322.383,241.429 L321.922,244.076 L321.452,246.845 L320.972,249.733 L320.483,252.736 L319.985,255.849 L319.477,259.067 L318.962,262.387 L318.438,265.802 L317.906,269.31 L317.362,272.903 L316.81,276.577 L316.25,280.329 L315.684,284.152 L315.112,288.043 L314.534,291.996 L313.951,296.005 L313.364,300.067 L312.773,304.177 L312.178,308.328 L311.579,312.517 L310.675,318.858 L309.465,327.396 L308.267,335.994 L307.067,344.609 L305.877,353.203 L304.731,361.741 L303.876,368.079 L303.309,372.263 L302.774,376.412 L302.247,380.518 L301.741,384.578 L301.248,388.586 L300.759,392.534 L300.298,396.421 L299.855,400.242 L299.416,403.988 L298.981,407.653 L298.551,411.234 L298.139,414.727 L297.778,418.132 L297.42,421.436 L297.065,424.634 L296.714,427.721 L296.424,430.701 L296.152,433.561 L295.881,436.294 L295.625,438.901 L295.492,440.778 L295.403,441.982 L295.313,443.149 L295.223,444.279 L295.155,445.376 L295.127,446.443 L295.096,447.47 L295.063,448.457 L295.114,449.423 L295.184,450.362 L295.377,450.868 C295.377,450.868 295.377,450.868 295.377,450.868 C294.751,453.422 296.315,455.998 298.868,456.623 C301.422,457.249 303.998,455.685 304.623,453.132 L304.623,453.132" fill="#000000"/>
  </g>
</svg>
